<?xml version="1.0" encoding="utf-8"?>
<!-- Generator: Adobe Illustrator 25.1.0, SVG Export Plug-In . SVG Version: 6.00 Build 0)  -->
<svg version="1.1" id="レイヤー_1" xmlns="http://www.w3.org/2000/svg" xmlns:xlink="http://www.w3.org/1999/xlink" x="0px"
	 y="0px" viewBox="0 0 179 175.8" style="enable-background:new 0 0 179 175.8;" xml:space="preserve">
<style type="text/css">
	.st0{clip-path:url(#SVGID_2_);}
	.st1{fill:#861B20;}
	.st2{fill:#CCCCCC;}
	.st3{fill:#FFFFFF;}
	.st4{font-family:'Toppan-BunkyuMidashiMinStdN-EB-83pv-RKSJ-H';}
	.st5{font-size:36.49px;}
	.st6{fill:#231815;}
	.st7{fill:none;stroke:#FFFFFF;stroke-width:0.5;stroke-miterlimit:10;}
	.st8{fill:none;stroke:#FFFFFF;stroke-width:10;stroke-miterlimit:10;}
</style>
<g id="レイヤー_2_1_">
	<g id="レイヤー_1-2">
		<g>
			<defs>
				<rect id="SVGID_1_" x="5" y="15.7" width="169" height="155.2"/>
			</defs>
			<clipPath id="SVGID_2_">
				<use xlink:href="#SVGID_1_"  style="overflow:visible;"/>
			</clipPath>
			<g class="st0">
				<rect x="5" y="15.7" class="st1" width="56.3" height="51.7"/>
				<rect x="61.3" y="15.7" class="st2" width="56.3" height="51.7"/>
				<rect x="117.7" y="15.7" class="st1" width="56.3" height="51.7"/>
				<rect x="117.7" y="67.4" class="st2" width="56.3" height="51.7"/>
				<rect x="61.3" y="67.4" class="st1" width="56.3" height="51.7"/>
				<rect x="5" y="67.4" class="st2" width="56.3" height="51.7"/>
				<rect x="5" y="119.1" class="st1" width="56.3" height="51.7"/>
				<rect x="61.3" y="119.1" class="st2" width="56.3" height="51.7"/>
				<rect x="117.7" y="119.1" class="st1" width="56.3" height="51.7"/>
				<text transform="matrix(1.09 0 0 1 124.3301 53.6299)" class="st3 st4 st5">こ</text>
				<text transform="matrix(1.09 0 0 1 69.5 107.1899)" class="st3 st4 st5">く</text>
				<text transform="matrix(1.09 0 0 1 11.6997 160.0898)" class="st3 st4 st5">ぶ</text>
				<text transform="matrix(1.09 0 0 1 125.6196 160.0898)" class="st6 st4 st5">崎</text>
				<text transform="matrix(1.09 0 0 1 125.6196 160.0898)" class="st7 st4 st5">崎</text>
				<text transform="matrix(1.09 0 0 1 13.1699 55.3198)" class="st6 st4 st5">宮</text>
				<text transform="matrix(1.09 0 0 1 13.1699 55.3198)" class="st7 st4 st5">宮</text>
				<rect x="5" y="15.7" class="st8" width="169" height="155.2"/>
			</g>
		</g>
	</g>
</g>
</svg>
