<svg xmlns="http://www.w3.org/2000/svg" xmlns:xlink="http://www.w3.org/1999/xlink" viewBox="0 0 179.04 175.84"><defs><style>.cls-1,.cls-7{fill:none;}.cls-2{clip-path:url(#clip-path);}.cls-3{fill:#861b20;}.cls-4{fill:#ccc;}.cls-5,.cls-6{font-size:36.49px;font-family:Toppan-BunkyuMidashiMinStdN-EB-83pv-RKSJ-H, Toppan BunkyuMidashiMinStdN;}.cls-5{fill:#fff;}.cls-6{fill:#231815;stroke:#fff;stroke-width:0.5px;}.cls-6,.cls-7{stroke-miterlimit:10;}.cls-7{stroke:#231815;stroke-width:10px;}</style><clipPath id="clip-path" transform="translate(5 15.69)"><rect class="cls-1" width="169.04" height="155.16"/></clipPath></defs><g id="レイヤー_2" data-name="レイヤー 2"><g id="レイヤー_1-2" data-name="レイヤー 1"><g class="cls-2"><rect class="cls-3" x="5" y="15.69" width="56.35" height="51.72"/><rect class="cls-4" x="61.35" y="15.69" width="56.35" height="51.72"/><rect class="cls-3" x="117.7" y="15.69" width="56.35" height="51.72"/><rect class="cls-4" x="117.7" y="67.41" width="56.35" height="51.72"/><rect class="cls-3" x="61.35" y="67.41" width="56.35" height="51.72"/><rect class="cls-4" x="5" y="67.41" width="56.35" height="51.72"/><rect class="cls-3" x="5" y="119.13" width="56.35" height="51.72"/><rect class="cls-4" x="61.35" y="119.13" width="56.35" height="51.72"/><rect class="cls-3" x="117.7" y="119.13" width="56.35" height="51.72"/><text class="cls-5" transform="translate(124.33 53.63) scale(1.09 1)">こ</text><text class="cls-5" transform="translate(69.5 107.19) scale(1.09 1)">く</text><text class="cls-5" transform="translate(11.7 160.09) scale(1.09 1)">ぶ</text><text x="5" y="15.69"/><text x="5" y="15.69"/><text x="5" y="15.69"/><text x="5" y="15.69"/><text x="5" y="15.69"/><text class="cls-6" transform="translate(125.62 160.09) scale(1.09 1)">崎</text><text class="cls-6" transform="translate(13.17 55.32) scale(1.09 1)">宮</text><rect class="cls-7" x="5" y="15.69" width="169.04" height="155.16"/></g></g></g></svg>